<svg xmlns="http://www.w3.org/2000/svg" viewBox="2 2 28 28" shape-rendering="crispEdges">

  <!-- cpu pins left side -->
  <rect x="4" y="9" width="2" height="1" fill="#3a3a3a"/>
  <rect x="4" y="11" width="2" height="1" fill="#3a3a3a"/>
  <rect x="4" y="13" width="2" height="1" fill="#3a3a3a"/>
  <rect x="4" y="15" width="2" height="1" fill="#3a3a3a"/>
  <rect x="4" y="17" width="2" height="1" fill="#3a3a3a"/>
  <rect x="4" y="19" width="2" height="1" fill="#3a3a3a"/>
  <rect x="4" y="21" width="2" height="1" fill="#3a3a3a"/>

  <!-- cpu pins right side -->
  <rect x="26" y="9" width="2" height="1" fill="#3a3a3a"/>
  <rect x="26" y="11" width="2" height="1" fill="#3a3a3a"/>
  <rect x="26" y="13" width="2" height="1" fill="#3a3a3a"/>
  <rect x="26" y="15" width="2" height="1" fill="#3a3a3a"/>
  <rect x="26" y="17" width="2" height="1" fill="#3a3a3a"/>
  <rect x="26" y="19" width="2" height="1" fill="#3a3a3a"/>
  <rect x="26" y="21" width="2" height="1" fill="#3a3a3a"/>

  <!-- cpu pins top -->
  <rect x="9" y="4" width="1" height="2" fill="#3a3a3a"/>
  <rect x="11" y="4" width="1" height="2" fill="#3a3a3a"/>
  <rect x="13" y="4" width="1" height="2" fill="#3a3a3a"/>
  <rect x="15" y="4" width="1" height="2" fill="#3a3a3a"/>
  <rect x="17" y="4" width="1" height="2" fill="#3a3a3a"/>
  <rect x="19" y="4" width="1" height="2" fill="#3a3a3a"/>
  <rect x="21" y="4" width="1" height="2" fill="#3a3a3a"/>

  <!-- cpu pins bottom -->
  <rect x="9" y="26" width="1" height="2" fill="#3a3a3a"/>
  <rect x="11" y="26" width="1" height="2" fill="#3a3a3a"/>
  <rect x="13" y="26" width="1" height="2" fill="#3a3a3a"/>
  <rect x="15" y="26" width="1" height="2" fill="#3a3a3a"/>
  <rect x="17" y="26" width="1" height="2" fill="#3a3a3a"/>
  <rect x="19" y="26" width="1" height="2" fill="#3a3a3a"/>
  <rect x="21" y="26" width="1" height="2" fill="#3a3a3a"/>

  <!-- cpu body black outline -->
  <rect x="6" y="6" width="20" height="20" fill="#1a1a1a"/>

  <!-- cpu body main yellow/gold -->
  <rect x="7" y="7" width="18" height="18" fill="#d4aa00"/>

  <!-- 3d effect, right edge (darker) -->
  <rect x="24" y="8" width="1" height="16" fill="#8b7000"/>
  <rect x="23" y="24" width="2" height="1" fill="#8b7000"/>

  <!-- 3d effect, bottom edge (darker) -->
  <rect x="8" y="24" width="16" height="1" fill="#8b7000"/>

  <!-- 3d effect; highlight top-left -->
  <rect x="7" y="7" width="17" height="1" fill="#ffdd44"/>
  <rect x="7" y="8" width="1" height="16" fill="#ffdd44"/>

  <!-- PC98 text -->
  <!-- P -->
  <rect x="9" y="9" width="3" height="1" fill="#1a1a1a"/>
  <rect x="9" y="10" width="1" height="3" fill="#1a1a1a"/>
  <rect x="11" y="10" width="1" height="2" fill="#1a1a1a"/>
  <rect x="10" y="11" width="1" height="1" fill="#1a1a1a"/>

  <!-- C -->
  <rect x="13" y="9" width="3" height="1" fill="#1a1a1a"/>
  <rect x="13" y="10" width="1" height="2" fill="#1a1a1a"/>
  <rect x="13" y="12" width="3" height="1" fill="#1a1a1a"/>

  <!-- 9 -->
  <rect x="9" y="15" width="3" height="1" fill="#1a1a1a"/>
  <rect x="9" y="16" width="1" height="2" fill="#1a1a1a"/>
  <rect x="11" y="16" width="1" height="2" fill="#1a1a1a"/>
  <rect x="9" y="18" width="3" height="1" fill="#1a1a1a"/>
  <rect x="11" y="19" width="1" height="2" fill="#1a1a1a"/>
  <rect x="9" y="21" width="3" height="1" fill="#1a1a1a"/>

  <!-- 8 -->
  <rect x="13" y="15" width="3" height="1" fill="#1a1a1a"/>
  <rect x="13" y="16" width="1" height="2" fill="#1a1a1a"/>
  <rect x="15" y="16" width="1" height="2" fill="#1a1a1a"/>
  <rect x="13" y="18" width="3" height="1" fill="#1a1a1a"/>
  <rect x="13" y="19" width="1" height="2" fill="#1a1a1a"/>
  <rect x="15" y="19" width="1" height="2" fill="#1a1a1a"/>
  <rect x="13" y="21" width="3" height="1" fill="#1a1a1a"/>

  <!-- music note -->
  <!-- note stem -->
  <rect x="20" y="9" width="1" height="6" fill="#cc0000"/>

  <!-- note head -->
  <rect x="18" y="14" width="3" height="2" fill="#cc0000"/>
  <rect x="19" y="13" width="1" height="1" fill="#cc0000"/>
  <rect x="19" y="16" width="1" height="1" fill="#cc0000"/>

  <!-- flag -->
  <rect x="21" y="9" width="2" height="1" fill="#cc0000"/>
  <rect x="22" y="10" width="1" height="1" fill="#cc0000"/>
</svg>
